# xmcd
#
# Track frame offsets:
#	150
#	16524
#	32584
#	48887
#	66848
#	88814
#	108123
#	125676
#	144661
#	167299
#	186247
#	203113
#
# Disc length: 2883 seconds
#
# Revision: 1
# Processed by: cddbd v1.5.1PL0 Copyright (c) Steve Scherf et al.
# Submitted via: audiograbber 1.83.01
#
DISCID=970b410c
DTITLE=Various Artist - Nashville Underground Sampler Series Volume
DYEAR=1900
DGENRE=Country
TTITLE0=Beth Nielsen Chapman - This Kiss
TTITLE1=Beth Nielsen Chapman - Nothin' I Can Do Bout It Now
TTITLE2=Jill Colucci - No One Else On Earth
TTITLE3=Jill Colucci - Save Me A Place In Your Heart
TTITLE4=Angela Kaset - Something In Red
TTITLE5=Angela Kaset - The Kindest Thing
TTITLE6=Mary Ann Kennedy - Save In The Arms Of Love
TTITLE7=Mary Ann Kennedy - Ride My Pony
TTITLE8=Tia Sillers - I Hope You Dance
TTITLE9=Tia Sillers - A Long Time Now
TTITLE10=Gretchen Peters - Independance Day
TTITLE11=Gretchen Peters - Picasso And Me
EXTD=
EXTT0=
EXTT1=
EXTT2=
EXTT3=
EXTT4=
EXTT5=
EXTT6=
EXTT7=
EXTT8=
EXTT9=
EXTT10=
EXTT11=
PLAYORDER=
